<?xml version="1.0" encoding="UTF-8"?>
<svg version="1.1" xmlns="http://www.w3.org/2000/svg" width="512" height="512">
<path d="M0 0 C2.44090185 -0.0054291 4.88180043 -0.01255616 7.32269287 -0.02124023 C13.23131069 -0.03750448 19.13974131 -0.03523727 25.04835367 -0.02358967 C29.85575936 -0.01450992 34.66310819 -0.01335083 39.47052002 -0.01768494 C40.15799714 -0.01829787 40.84547426 -0.0189108 41.55378401 -0.01954231 C42.95092505 -0.02082137 44.34806607 -0.02211823 45.74520707 -0.02343267 C58.807871 -0.03480481 71.87042214 -0.02177789 84.93306756 -0.00023121 C96.11103374 0.01763673 107.28883369 0.01453167 118.46679688 -0.00390625 C131.48670112 -0.02537277 144.50650684 -0.03370648 157.52642632 -0.0214572 C158.91806919 -0.02018317 160.30971208 -0.01892568 161.70135498 -0.01768494 C162.72809308 -0.01675928 162.72809308 -0.01675928 163.77557337 -0.01581493 C168.57023485 -0.01237931 173.36483317 -0.01815149 178.15948486 -0.02760315 C184.62753263 -0.04007482 191.09534188 -0.0310377 197.56336212 -0.00802612 C199.92752822 -0.0027677 202.29172087 -0.00420321 204.65587616 -0.01307678 C220.49825742 -0.06702633 234.68623017 0.7226337 248.9609375 8.33007812 C249.62593262 8.67337158 250.29092773 9.01666504 250.97607422 9.37036133 C256.31917693 12.20493144 261.0274815 15.54010181 265.5859375 19.51757812 C266.55402344 20.28972656 267.52210938 21.061875 268.51953125 21.85742188 C277.90902509 29.69523715 284.56731823 41.07712639 288.5859375 52.51757812 C288.91928856 53.45537109 289.25263962 54.39316406 289.59609222 55.359375 C293.35574769 67.46983213 293.15076434 79.34333036 293.10351562 91.93164062 C293.10894473 94.37254248 293.11607178 96.81344105 293.12475586 99.2543335 C293.14102011 105.16295131 293.1387529 111.07138194 293.1271053 116.9799943 C293.11802555 121.78739998 293.11686645 126.59474882 293.12120056 131.40216064 C293.12181349 132.08963776 293.12242643 132.77711488 293.12305793 133.48542464 C293.12433699 134.88256567 293.12563385 136.27970669 293.1269483 137.6768477 C293.13832043 150.73951162 293.12529352 163.80206277 293.10374683 176.86470819 C293.08587889 188.04267437 293.08898395 199.22047431 293.10742188 210.3984375 C293.12888839 223.41834175 293.13722211 236.43814746 293.12497282 249.45806694 C293.12369879 250.84970981 293.1224413 252.2413527 293.12120056 253.63299561 C293.12027491 254.65973371 293.12027491 254.65973371 293.11933056 255.707214 C293.11589494 260.50187548 293.12166712 265.2964738 293.13111877 270.09112549 C293.14359045 276.55917326 293.13455333 283.02698251 293.11154175 289.49500275 C293.10628332 291.85916884 293.10771883 294.22336149 293.11659241 296.58751678 C293.17054364 312.43039315 292.38032689 326.61723721 284.7734375 340.89257812 C284.43086914 341.55684814 284.08830078 342.22111816 283.73535156 342.90551758 C280.90214382 348.25009634 277.54573185 352.94495846 273.5859375 357.51757812 C272.98910156 358.31035156 272.39226562 359.103125 271.77734375 359.91992188 C263.73970352 369.44760593 252.28514505 376.46065406 240.5859375 380.51757812 C239.6492775 380.84979622 238.71261749 381.18201431 237.74757385 381.52429962 C225.63581927 385.28739241 213.76229005 385.08241287 201.171875 385.03515625 C198.73097315 385.04058535 196.29007457 385.04771241 193.84918213 385.05639648 C187.94056431 385.07266073 182.03213369 385.07039352 176.12352133 385.05874592 C171.31611564 385.04966617 166.50876681 385.04850708 161.70135498 385.05284119 C161.01387786 385.05345412 160.32640074 385.05406705 159.61809099 385.05469856 C158.22094995 385.05597762 156.82380893 385.05727448 155.42666793 385.05858892 C142.364004 385.06996106 129.30145286 385.05693414 116.23880744 385.03538746 C105.06084126 385.01751952 93.88304131 385.02062458 82.70507812 385.0390625 C69.68517388 385.06052902 56.66536816 385.06886273 43.64544868 385.05661345 C42.25380581 385.05533942 40.86216292 385.05408193 39.47052002 385.05284119 C38.44378192 385.05191553 38.44378192 385.05191553 37.39630163 385.05097118 C32.60164015 385.04753556 27.80704183 385.05330774 23.01239014 385.0627594 C16.54434237 385.07523107 10.07653312 385.06619395 3.60851288 385.04318237 C1.24434678 385.03792395 -1.11984587 385.03935946 -3.48400116 385.04823303 C-19.32638242 385.10218258 -33.51435517 384.31252255 -47.7890625 376.70507812 C-48.45405762 376.36178467 -49.11905273 376.01849121 -49.80419922 375.66479492 C-55.14730193 372.83022481 -59.8556065 369.49505444 -64.4140625 365.51757812 C-65.38214844 364.74542969 -66.35023437 363.97328125 -67.34765625 363.17773438 C-76.73715009 355.3399191 -83.39544323 343.95802986 -87.4140625 332.51757812 C-87.74741356 331.57978516 -88.08076462 330.64199219 -88.42421722 329.67578125 C-92.18387269 317.56532412 -91.97888934 305.69182589 -91.93164062 293.10351562 C-91.93706973 290.66261377 -91.94419678 288.2217152 -91.95288086 285.78082275 C-91.96914511 279.87220494 -91.9668779 273.96377431 -91.9552303 268.05516195 C-91.94615055 263.24775627 -91.94499145 258.44040743 -91.94932556 253.63299561 C-91.94993849 252.94551849 -91.95055143 252.25804137 -91.95118293 251.54973161 C-91.95246199 250.15259058 -91.95375885 248.75544956 -91.9550733 247.35830855 C-91.96644543 234.29564463 -91.95341852 221.23309348 -91.93187183 208.17044806 C-91.91400389 196.99248188 -91.91710895 185.81468194 -91.93554688 174.63671875 C-91.95701339 161.6168145 -91.96534711 148.59700879 -91.95309782 135.57708931 C-91.95182379 134.18544644 -91.9505663 132.79380355 -91.94932556 131.40216064 C-91.94870846 130.71766858 -91.94809136 130.03317651 -91.94745556 129.32794225 C-91.94401994 124.53328077 -91.94979212 119.73868245 -91.95924377 114.94403076 C-91.97171545 108.47598299 -91.96267833 102.00817374 -91.93966675 95.5401535 C-91.93440832 93.17598741 -91.93584383 90.81179476 -91.94471741 88.44763947 C-91.99866695 72.6052582 -91.20900693 58.41728546 -83.6015625 44.14257812 C-83.25826904 43.47758301 -82.91497559 42.81258789 -82.5612793 42.12744141 C-79.72670918 36.78433869 -76.39153882 32.07603413 -72.4140625 27.51757812 C-71.25583984 26.06544922 -71.25583984 26.06544922 -70.07421875 24.58398438 C-62.23640348 15.19449053 -50.85451424 8.53619739 -39.4140625 4.51757812 C-38.47626953 4.18422707 -37.53847656 3.85087601 -36.57226562 3.5074234 C-24.4618085 -0.25223206 -12.58831027 -0.04724872 0 0 Z M-47.6640625 49.83007812 C-57.69337832 61.55758487 -59.57534284 75.12546005 -59.54777527 90.01629639 C-59.55004083 90.92952958 -59.55230638 91.84276278 -59.55464059 92.78366971 C-59.5609329 95.82096221 -59.56015431 98.85820954 -59.55932617 101.89550781 C-59.56232064 104.08261167 -59.56572384 106.26971499 -59.56950378 108.45681763 C-59.57831872 114.38259123 -59.58068085 120.30835038 -59.58131957 126.23412991 C-59.5820315 129.94076881 -59.58416854 133.64740406 -59.58681679 137.35404205 C-59.59558537 149.63062334 -59.60023753 161.90719583 -59.59948631 174.18378028 C-59.59944636 174.84436326 -59.5994064 175.50494623 -59.59936523 176.18554688 C-59.59932435 176.84694503 -59.59928347 177.50834319 -59.59924135 178.18978372 C-59.5988604 188.2359109 -59.60665405 198.28200697 -59.61987305 208.328125 C-59.63520159 220.01778038 -59.64363026 231.70741278 -59.64290982 243.39707875 C-59.64265547 249.57616455 -59.64547238 255.75521051 -59.65608788 261.93428802 C-59.6658049 267.74884875 -59.66582338 273.56333181 -59.65857124 279.37789536 C-59.65752987 281.50424438 -59.65986152 283.63059832 -59.6659317 285.75693893 C-59.72003479 306.03218498 -59.18195389 323.36997249 -44.3125 338.68164062 C-32.13015191 350.17523405 -18.09124168 352.68123751 -1.91534424 352.65129089 C-1.00211104 352.65355645 -0.08887784 352.65582201 0.85202909 352.65815622 C3.88932159 352.66444852 6.92656892 352.66366994 9.96386719 352.6628418 C12.15097104 352.66583627 14.33807437 352.66923946 16.525177 352.67301941 C22.4509506 352.68183435 28.37670976 352.68419647 34.30248928 352.6848352 C38.00912818 352.68554713 41.71576344 352.68768417 45.42240143 352.69033241 C57.69898271 352.699101 69.9755552 352.70375316 82.25213966 352.70300194 C83.24301412 352.702942 83.24301412 352.702942 84.25390625 352.70288086 C85.24600349 352.70281954 85.24600349 352.70281954 86.2581431 352.70275698 C96.30427027 352.70237602 106.35036634 352.71016968 116.39648438 352.72338867 C128.08613976 352.73871721 139.77577216 352.74714588 151.46543813 352.74642545 C157.64452393 352.74617109 163.82356988 352.74898801 170.0026474 352.7596035 C175.81720812 352.76932052 181.63169119 352.769339 187.44625473 352.76208687 C189.57260375 352.7610455 191.6989577 352.76337715 193.82529831 352.76944733 C214.10054435 352.82355041 231.43833187 352.28546952 246.75 337.41601562 C258.24359343 325.23366754 260.74959689 311.1947573 260.71965027 295.01885986 C260.72191583 294.10562667 260.72418138 293.19239347 260.72651559 292.25148654 C260.7328079 289.21419404 260.73202931 286.17694671 260.73120117 283.13964844 C260.73419564 280.95254458 260.73759884 278.76544126 260.74137878 276.57833862 C260.75019372 270.65256502 260.75255585 264.72680587 260.75319457 258.80102634 C260.7539065 255.09438744 260.75604354 251.38775219 260.75869179 247.6811142 C260.76746037 235.40453291 260.77211253 223.12796042 260.77136131 210.85137597 C260.77132136 210.19079299 260.7712814 209.53021002 260.77124023 208.84960938 C260.77119935 208.18821122 260.77115847 207.52681306 260.77111635 206.84537253 C260.7707354 196.79924535 260.77852905 186.75314928 260.79174805 176.70703125 C260.80707659 165.01737587 260.81550526 153.32774347 260.81478482 141.6380775 C260.81453047 135.4589917 260.81734738 129.27994574 260.82796288 123.10086823 C260.8376799 117.2863075 260.83769838 111.47182444 260.83044624 105.65726089 C260.82940487 103.53091187 260.83173652 101.40455793 260.8378067 99.27821732 C260.89190979 79.00297127 260.35382889 61.66518376 245.484375 46.35351562 C233.14822668 34.71481739 219.32872749 32.35346879 202.96696472 32.38386536 C201.59583329 32.38046702 201.59583329 32.38046702 200.19700223 32.37700003 C197.16281577 32.37071755 194.12867463 32.37148567 191.09448242 32.37231445 C188.90723107 32.36931939 186.71998024 32.36591606 184.5327301 32.36213684 C178.61114781 32.35332856 172.68957999 32.35096008 166.76799178 32.35032105 C163.06352511 32.34960882 159.35906209 32.34747123 155.65459633 32.34482384 C142.04973021 32.33510447 128.44487543 32.33155764 114.84000609 32.33239927 C104.80014364 32.33278032 94.76031229 32.32498358 84.72045898 32.31176758 C73.03555737 32.29643919 61.35067874 32.28801034 49.66576654 32.2887308 C43.49004908 32.28898514 37.3143715 32.2861693 31.13866234 32.27555275 C25.32819222 32.26583603 19.51779982 32.26581704 13.70732689 32.27306938 C11.58258958 32.27411074 9.45784733 32.27177917 7.33311844 32.26570892 C-14.30337078 32.20792861 -31.99579955 33.22289305 -47.6640625 49.83007812 Z " fill="#B000FF" transform="translate(155.4140625,63.482421875)"/>
<path d="M0 0 C4.8846525 2.26787438 7.73212562 5.1153475 10 10 C11.00769117 17.48570584 10.47239043 21.84100547 6 28 C4.35105741 29.82285331 2.65164565 31.60085098 0.91430664 33.33966064 C0.41551782 33.84156945 -0.08327101 34.34347826 -0.59717464 34.86059642 C-2.25669245 36.52804177 -3.92320679 38.18830551 -5.58984375 39.84863281 C-6.78631334 41.04781453 -7.9823575 42.24742085 -9.17800903 43.44741821 C-12.41707405 46.6955812 -15.66240967 49.93740978 -18.90919876 53.17784977 C-22.30826832 56.57184828 -25.70244698 59.9707323 -29.09741211 63.36883545 C-34.79670005 69.07175881 -40.50018513 74.77045908 -46.20605469 80.46679688 C-52.80362903 87.05347706 -59.39395344 93.64734536 -65.98057842 100.24497342 C-71.63814146 105.91160893 -77.29958833 111.57434198 -82.96430683 117.23382449 C-86.34676057 120.61315966 -89.72784716 123.9938329 -93.10543823 127.37802887 C-96.27904475 130.55740798 -99.4574949 133.73186361 -102.63976669 136.90256882 C-103.80732492 138.06748046 -104.97318067 139.23410127 -106.13721085 140.4025383 C-107.72499999 141.995784 -109.3188074 143.58275472 -110.91430664 145.16827393 C-111.80509415 146.05830738 -112.69588165 146.94834084 -113.61366272 147.865345 C-117.64813273 151.47430742 -120.49090236 152.30650003 -125.875 152.375 C-126.88304687 152.40335938 -127.89109375 152.43171875 -128.9296875 152.4609375 C-135.57120449 151.46386497 -140.15844683 146.1314321 -144.70800781 141.55078125 C-145.34940704 140.91288666 -145.99080627 140.27499207 -146.65164185 139.61776733 C-148.75717413 137.52099326 -150.85535832 135.41704121 -152.953125 133.3125 C-154.41920241 131.8477706 -155.88557654 130.38333814 -157.35223389 128.91918945 C-160.41842369 125.85594263 -163.48098074 122.78912149 -166.54101562 119.71972656 C-170.46400808 115.78531998 -174.39593784 111.85998705 -178.330616 107.93727112 C-181.35735839 104.91775238 -184.37932527 101.89349051 -187.3998642 98.86776733 C-188.84808286 97.41821463 -190.29778835 95.97014582 -191.74900055 94.52359009 C-193.77406827 92.50359799 -195.79261991 90.47731164 -197.80957031 88.44921875 C-198.41010223 87.85273529 -199.01063416 87.25625183 -199.62936401 86.64169312 C-204.25107245 81.97254344 -206.28904393 78.88114702 -206.375 72.125 C-206.27363418 66.91733093 -205.69948398 63.89419367 -202 60 C-197.35351746 55.58584159 -193.11206934 55.53241739 -187 55.46875 C-180.97220736 56.53617161 -176.8288918 60.92320327 -172.63720703 65.13574219 C-171.88974464 65.88276649 -171.88974464 65.88276649 -171.12718201 66.6448822 C-169.49926617 68.27417916 -167.87852925 69.91041946 -166.2578125 71.546875 C-165.12339395 72.68502801 -163.98852982 73.82273707 -162.85324097 74.96002197 C-159.87982086 77.94104439 -156.91245863 80.92802567 -153.9463501 83.9163208 C-150.91320656 86.96999633 -147.87432768 90.01795265 -144.8359375 93.06640625 C-138.88502127 99.03871232 -132.94049747 105.01733065 -127 111 C-123.45583205 109.48983219 -121.18925908 107.4317112 -118.48376465 104.71081543 C-117.58373215 103.81064194 -116.68369965 102.91046844 -115.75639343 101.98301697 C-114.76654681 100.98290299 -113.77678841 99.98270169 -112.78710938 98.98242188 C-111.73928093 97.93075428 -110.6909956 96.87954173 -109.64228821 95.82875061 C-107.38643801 93.56658124 -105.1337321 91.30134245 -102.88337708 89.03370667 C-99.32531261 85.44859852 -95.7596333 81.87113011 -92.19274902 78.2947998 C-84.62257483 70.70242449 -77.06086468 63.10164453 -69.5 55.5 C-61.33760946 47.29358526 -53.17380223 39.08861171 -45.00019884 30.89336252 C-41.45427046 27.33746439 -37.91327754 23.77674468 -34.37596893 20.21227264 C-32.1751846 17.99657672 -29.97027102 15.78502574 -27.76421165 13.57458305 C-26.74175112 12.54837631 -25.7210221 11.52044104 -24.70215797 10.49066353 C-23.31148641 9.08556697 -21.91402853 7.68719672 -20.51623535 6.28918457 C-19.736063 5.504571 -18.95589066 4.71995743 -18.15207672 3.91156769 C-12.70323497 -0.92832938 -7.01778916 -0.75257793 0 0 Z " fill="#AF00FF" transform="translate(358,176)"/>
</svg>
